<svg width="23.197mm" height="6.7263mm" version="1.1" viewBox="0 0 23.197 6.7263" xmlns="http://www.w3.org/2000/svg"><defs><linearGradient id="linearGradient865" x1="36.097" x2="64.823" y1="187.39" y2="149.78" gradientTransform="matrix(.52867 0 0 .52867 81.772 94.802)" gradientUnits="userSpaceOnUse"><stop stop-color="#2a7fff" offset="0"/><stop stop-color="#9d3cff" offset="1"/></linearGradient><linearGradient id="linearGradient941" x1="110.65" x2="130.69" y1="184.15" y2="184.15" gradientUnits="userSpaceOnUse"><stop stop-color="#8948ff" offset="0"/><stop stop-color="#ff39b2" offset="1"/></linearGradient></defs><g transform="translate(-105.9,-181.23)"><g fill="#3a485d" stroke-width=".10978" aria-label="Arismar"><path d="m111.9 187.59h-0.56692l-0.12865 0.34993h-0.11064l0.47257-1.2488h0.10035l0.47258 1.2488h-0.10979zm-0.53433-0.09h0.50088l-0.25044-0.68013z"/><path d="m113.86 187.1q-0.0326-6e-3 -0.0695-6e-3 -0.0961 0-0.16296 0.054-0.066 0.0532-0.0943 0.15524v0.63724h-0.10206v-0.92799h0.10035l2e-3 0.14752q0.0815-0.16468 0.26159-0.16468 0.0429 0 0.0678 0.0112z"/><path d="m115.27 187.94h-0.10292v-0.92799h0.10292zm-0.12093-1.1964q0-0.0292 0.0189-0.0489 0.0189-0.0206 0.0515-0.0206t0.0515 0.0206q0.0197 0.0197 0.0197 0.0489t-0.0197 0.0489q-0.0189 0.0197-0.0515 0.0197t-0.0515-0.0197-0.0189-0.0489z"/><path d="m117.24 187.7q0-0.0763-0.0618-0.12264-0.0609-0.0463-0.1844-0.0721-0.12351-0.0266-0.19212-0.06-0.0678-0.0343-0.1012-0.0832-0.0326-0.0489-0.0326-0.11835 0-0.10979 0.0918-0.18097 0.0918-0.0721 0.235-0.0721 0.15524 0 0.24873 0.0772 0.0943 0.0763 0.0943 0.19984h-0.10292q0-0.0815-0.0686-0.13551-0.0678-0.054-0.17154-0.054-0.1012 0-0.16295 0.0455-0.0609 0.0446-0.0609 0.11665 0 0.0695 0.0506 0.10806 0.0515 0.0377 0.18611 0.0695 0.13551 0.0317 0.20241 0.0678 0.0678 0.036 0.10035 0.0866 0.0326 0.0506 0.0326 0.12265 0 0.1175-0.0952 0.18783-0.0943 0.0703-0.24701 0.0703-0.1621 0-0.2633-0.078-0.10035-0.0789-0.10035-0.19898h0.10292q6e-3 0.09 0.0755 0.14066 0.0703 0.0497 0.18526 0.0497 0.10721 0 0.17325-0.0472 0.066-0.0472 0.066-0.11922z"/><path d="m118.8 187.01 3e-3 0.15095q0.0515-0.084 0.12865-0.12608 0.0772-0.042 0.17153-0.042 0.21956 0 0.27874 0.18011 0.0498-0.0866 0.13294-0.13293 0.0832-0.0472 0.18354-0.0472 0.29847 0 0.30447 0.32592v0.61923h-0.10292v-0.61151q-8.6e-4 -0.12437-0.054-0.1844-0.0523-0.06-0.17153-0.06-0.11064 2e-3 -0.18697 0.072-0.0763 0.0695-0.0849 0.16981v0.61409h-0.10292v-0.61923q-8.6e-4 -0.11922-0.0566-0.17754-0.0549-0.0592-0.16982-0.0592-0.0969 0-0.16638 0.0558-0.0695 0.0549-0.10292 0.16381v0.63639h-0.10292v-0.92799z"/><path d="m121.99 187.94q-0.0154-0.0437-0.0197-0.12951-0.054 0.0703-0.13808 0.10893-0.0832 0.0377-0.17668 0.0377-0.1338 0-0.21699-0.0746-0.0823-0.0746-0.0823-0.18869 0-0.13551 0.11236-0.21441 0.11321-0.0789 0.31476-0.0789h0.18612v-0.10549q0-0.0995-0.0618-0.1561-0.0609-0.0575-0.17839-0.0575-0.10721 0-0.17754 0.0549-0.0703 0.0549-0.0703 0.13208l-0.10292-8.6e-4q0-0.11064 0.10292-0.19126 0.10292-0.0815 0.25301-0.0815 0.15524 0 0.24444 0.0781 0.09 0.0772 0.0926 0.21613v0.43913q0 0.13465 0.0283 0.20155v0.0103zm-0.32248-0.0738q0.10292 0 0.18354-0.0497 0.0815-0.0497 0.11836-0.13294v-0.20412h-0.18355q-0.15352 2e-3 -0.24014 0.0566-0.0866 0.054-0.0866 0.14924 0 0.078 0.0575 0.1295 0.0583 0.0515 0.15095 0.0515z"/><path d="m123.9 187.1q-0.0326-6e-3 -0.0695-6e-3 -0.0961 0-0.16296 0.054-0.066 0.0532-0.0943 0.15524v0.63724h-0.10207v-0.92799h0.10035l2e-3 0.14752q0.0815-0.16468 0.26159-0.16468 0.0429 0 0.0678 0.0112z"/></g><g transform="matrix(.26759 0 0 .26759 79.925 134.18)"><path d="m104.97 175.84-1.0547 8.4171 1.1126 8.3633h2.1833v-5.9123h3.0308c1.99 0 3.5462-0.47245 4.6679-1.4175 1.1294-0.95271 1.694-2.2512 1.694-3.8954 0-1.0833-0.25727-2.0477-0.77205-2.8928-0.51477-0.85284-1.2524-1.51-2.2128-1.9709-0.95272-0.46099-2.0591-0.69143-3.3192-0.69143zm2.2412 2.8009h3.1693c0.85283 0.0154 1.521 0.27632 2.005 0.78342 0.48404 0.50709 0.72605 1.1716 0.72605 1.9937 0 0.79906-0.24201 1.4141-0.72605 1.8443-0.47636 0.43025-1.1714 0.64543-2.0857 0.64543h-3.0887z" fill="url(#linearGradient865)"/><path d="m104.17 175.84-7.0982 8.1072 7.0982 8.6732-1.3355-8.3634z" fill="#5a63ff"/></g><g fill="url(#linearGradient941)" stroke-width=".36938" aria-label="aredes"><path d="m113.4 185.66q-0.0577-0.11255-0.0837-0.27992-0.30301 0.33763-0.78782 0.33763-0.45884 0-0.76185-0.26549-0.30012-0.26549-0.30012-0.6695 0-0.49636 0.3665-0.76185 0.36938-0.26549 1.0648-0.26838h0.38381v-0.17892q0-0.21643-0.11254-0.34629-0.10966-0.12986-0.34918-0.12986-0.21067 0-0.33187 0.101-0.11832 0.101-0.11832 0.27703h-0.83399q0-0.27126 0.16738-0.50212 0.16737-0.23087 0.47327-0.36073 0.30589-0.13274 0.68681-0.13274 0.57716 0 0.9148 0.29146 0.34052 0.28858 0.34052 0.81379v1.3534q3e-3 0.44441 0.12409 0.67239v0.0491zm-0.6897-0.58005q0.18469 0 0.34052-0.0808 0.15583-0.0837 0.23086-0.2222v-0.53676h-0.31166q-0.62622 0-0.66662 0.43287l-3e-3 0.0491q0 0.15583 0.10966 0.25683t0.30013 0.101z"/><path d="m116.52 183.32q-0.17026-0.0231-0.30012-0.0231-0.47327 0-0.62045 0.32033v2.0431h-0.83399v-3.1224h0.78782l0.0231 0.37227q0.25106-0.42998 0.69547-0.42998 0.13852 0 0.25972 0.0375z"/><path d="m118.3 185.72q-0.68682 0-1.1197-0.42132-0.42998-0.42133-0.42998-1.1226v-0.0808q0-0.47038 0.1818-0.83976 0.18181-0.37227 0.51367-0.57139 0.33476-0.202 0.76185-0.202 0.64065 0 1.0071 0.40401 0.36939 0.40401 0.36939 1.1457v0.34052h-1.9883q0.0404 0.30589 0.2424 0.49058 0.20489 0.18469 0.51656 0.18469 0.48193 0 0.75319-0.34918l0.40978 0.45884q-0.18757 0.2655-0.5079 0.41556-0.32032 0.14717-0.7099 0.14717zm-0.0952-2.5626q-0.24818 0-0.40401 0.16738-0.15295 0.16737-0.19624 0.47904h1.1601v-0.0664q-6e-3 -0.27704-0.15006-0.4271-0.14429-0.15295-0.40978-0.15295z"/><path d="m119.93 184.08q0-0.73011 0.3261-1.163 0.32898-0.43286 0.89748-0.43286 0.45595 0 0.75319 0.34052v-1.593h0.83688v4.4326h-0.75319l-0.0404-0.33187q-0.31166 0.38958-0.80225 0.38958-0.55118 0-0.88593-0.43287-0.33187-0.43575-0.33187-1.2091zm0.83399 0.0606q0 0.43864 0.15295 0.67239t0.44441 0.23375q0.3867 0 0.54542-0.3261v-1.2322q-0.15583-0.32609-0.53965-0.32609-0.60313 0-0.60313 0.97828z"/><path d="m124.83 185.72q-0.68682 0-1.1197-0.42132-0.42998-0.42133-0.42998-1.1226v-0.0808q0-0.47038 0.18181-0.83976 0.1818-0.37227 0.51367-0.57139 0.33475-0.202 0.76184-0.202 0.64065 0 1.0072 0.40401 0.36938 0.40401 0.36938 1.1457v0.34052h-1.9883q0.0404 0.30589 0.2424 0.49058 0.20489 0.18469 0.51656 0.18469 0.48193 0 0.75319-0.34918l0.40978 0.45884q-0.18757 0.2655-0.5079 0.41556-0.32032 0.14717-0.7099 0.14717zm-0.0952-2.5626q-0.24818 0-0.40401 0.16738-0.15295 0.16737-0.19624 0.47904h1.1601v-0.0664q-6e-3 -0.27704-0.15006-0.4271-0.14429-0.15295-0.40978-0.15295z"/><path d="m128.29 184.8q0-0.15295-0.15295-0.23952-0.15006-0.0895-0.48481-0.15872-1.1139-0.23375-1.1139-0.94654 0-0.41556 0.34341-0.69259 0.3463-0.27992 0.90325-0.27992 0.59448 0 0.94943 0.27992 0.35784 0.27992 0.35784 0.72722h-0.834q0-0.17892-0.11543-0.29435-0.11543-0.11832-0.36072-0.11832-0.21067 0-0.3261 0.0952t-0.11543 0.24241q0 0.13851 0.12986 0.22509 0.13275 0.0837 0.44441 0.14717 0.31167 0.0606 0.52522 0.13852 0.66084 0.24241 0.66084 0.83977 0 0.42709-0.36649 0.69259-0.3665 0.2626-0.94654 0.2626-0.39247 0-0.69836-0.13851-0.30301-0.14141-0.47616-0.38381-0.17315-0.2453-0.17315-0.5281h0.79071q0.0115 0.2222 0.16449 0.34052 0.15295 0.11832 0.40978 0.11832 0.23952 0 0.36073-0.0895 0.12409-0.0923 0.12409-0.23952z"/></g></g></svg>
